PathFileType  4	(X/Y/Z) C:\Users\antoi\Documents\MyRepositories\mobilecap\ResultsAnalysis
DataRate	CameraRate	NumFrames	NumMarkers	Units	OrigDataRate	OrigDataStartFrame	OrigNumFrames
100.0	100.0	4	51	mm	100.0	87	231
Frame#	Time	r_knee			r_shank_antsup			r_ankle			r_calc			r_5meta			r_toe			L_knee			L_shank_antsup			L_ankle			L_calc			L_5meta			L_toe			r_sh2			r_sh3			r_sh4			L_sh2			L_sh3			r_thigh1			r_thigh2			r_thigh3			r_thigh4			r_thigh5			L_thigh1			L_thigh2			L_thigh3			L_thigh4			r.ASIS			r.PSIS			L.ASIS			L.PSIS			C7			R_Shoulder			L_Shoulder			R_Sternum			L_Sternum			R_humerus			R_elbow_med			R_elbow_lat			R_forearm			R_wrist_radius			R_wrist_ulna			L_humerus			L_elbow_med			L_elbow_lat			L_forearm			L_wrist_radius			L_wrist_ulna			R_HJC			L_HJC			R_HJC_reg			L_HJC_reg			
		X1	Y1	Z1	X2	Y2	Z2	X3	Y3	Z3	X4	Y4	Z4	X5	Y5	Z5	X6	Y6	Z6	X7	Y7	Z7	X8	Y8	Z8	X9	Y9	Z9	X10	Y10	Z10	X11	Y11	Z11	X12	Y12	Z12	X13	Y13	Z13	X14	Y14	Z14	X15	Y15	Z15	X16	Y16	Z16	X17	Y17	Z17	X18	Y18	Z18	X19	Y19	Z19	X20	Y20	Z20	X21	Y21	Z21	X22	Y22	Z22	X23	Y23	Z23	X24	Y24	Z24	X25	Y25	Z25	X26	Y26	Z26	X27	Y27	Z27	X28	Y28	Z28	X29	Y29	Z29	X30	Y30	Z30	X31	Y31	Z31	X32	Y32	Z32	X33	Y33	Z33	X34	Y34	Z34	X35	Y35	Z35	X36	Y36	Z36	X37	Y37	Z37	X38	Y38	Z38	X39	Y39	Z39	X40	Y40	Z40	X41	Y41	Z41	X42	Y42	Z42	X43	Y43	Z43	X44	Y44	Z44	X45	Y45	Z45	X46	Y46	Z46	X47	Y47	Z47	X48	Y48	Z48	X49	Y49	Z49	X50	Y50	Z50	X51	Y51	Z51	

87	0.86000000	-499.33349	857.67878	-421.66475	-461.11844	763.26840	-424.57177	-532.68252	424.93475	-435.39949	-618.20100	413.89905	-491.68666	-458.29496	294.78643	-408.27838	-385.82234	314.23952	-458.41728	-535.65396	845.73112	-794.82591	-540.30512	757.21772	-816.87981	-567.60020	421.70613	-763.14509	-640.04832	402.74872	-688.09845	-494.46399	297.79588	-801.00837	-416.48395	311.72413	-758.07488	-482.21044	655.27979	-395.51461	-525.78737	784.11402	-390.46244	-561.13022	674.20662	-380.98709	-625.92749	765.09908	-790.40010	-621.16265	643.10130	-787.22417	-508.63529	1188.41586	-419.53373	-476.22096	1084.13914	-422.74914	-519.03929	1043.40675	-391.53680	-614.63299	1150.21024	-411.41305	-572.51037	1043.38455	-407.84061	-510.46118	1143.67209	-798.40236	-474.41873	1007.99440	-793.06786	-615.78283	1114.80462	-813.96681	-585.08767	981.07382	-809.85153	-530.55313	1384.07963	-480.57881	-707.59827	1402.28592	-546.42843	-530.34933	1374.19723	-725.49079	-710.14192	1401.01249	-657.03562	-512.48754	1930.68706	-635.33138	-482.21863	1895.52160	-476.83906	-504.63760	1866.74552	-779.47273	-425.31263	1808.42511	-592.24151	-428.07764	1799.91382	-652.92955	-532.82513	1842.04950	-338.91443	-687.09741	1716.02101	-232.98292	-676.52952	1803.84481	-207.90877	-536.88633	1760.28017	-115.51970	-447.74350	1740.94170	-96.44850	-478.49019	1728.83313	-65.05766	-542.65253	1777.45300	-880.47442	-586.26507	1532.21525	-910.88738	-581.56144	1585.48793	-982.41941	-503.26163	1597.84776	-988.85204	-335.40138	1613.85889	-959.13926	-332.04826	1580.26391	-983.04437	-613.28806	1270.51484	-493.91111	-618.65679	1269.78922	-700.80098	-590.23180	1301.93056	-512.55537	-593.95187	1300.06907	-674.27506	
88	0.87000000	-488.35174	843.28309	-421.01207	-447.65380	750.43285	-422.08024	-505.44122	409.12960	-433.52709	-589.86489	396.64649	-490.44413	-428.11279	280.20666	-406.95931	-355.59948	301.92281	-456.03127	-523.35141	831.98146	-796.35275	-524.65591	743.44446	-819.08823	-537.35981	406.08558	-767.41782	-608.30835	385.90330	-691.67038	-461.36088	283.12178	-804.59296	-383.51363	299.61562	-762.42145	-465.60387	641.85504	-393.49953	-514.15074	768.82507	-390.27598	-545.71429	657.71337	-380.89898	-610.35929	747.23552	-791.95397	-600.27026	625.57244	-789.64711	-497.69851	1174.17649	-418.96912	-465.19479	1069.64729	-422.07900	-508.30490	1029.26263	-391.00689	-603.71884	1135.89734	-411.74079	-561.60763	1028.93530	-407.78893	-499.54905	1129.95674	-799.62137	-463.38977	994.32438	-794.61303	-605.02851	1101.08400	-813.82381	-574.20287	967.31913	-810.34617	-518.69567	1369.46625	-480.26697	-695.65852	1387.80688	-546.26858	-518.80290	1359.77206	-725.51051	-698.49197	1386.79660	-656.66914	-498.69544	1915.83954	-635.16524	-466.04087	1881.04103	-476.92649	-490.95336	1853.61848	-779.13189	-411.87493	1793.12362	-592.45324	-414.66818	1784.74067	-652.87235	-522.26548	1830.01910	-340.62926	-691.46381	1714.65903	-243.71703	-673.92743	1801.19236	-215.94582	-540.40447	1744.91485	-122.38764	-453.53338	1718.50630	-102.18265	-485.57141	1707.97208	-71.74417	-535.17804	1766.15724	-879.77826	-594.31323	1523.56952	-908.98778	-587.28033	1577.28665	-980.57992	-508.15655	1585.31375	-988.20965	-339.53930	1592.18447	-961.12998	-338.47494	1558.57258	-985.26773	-601.55357	1255.96772	-493.83153	-607.13556	1255.45211	-700.71653	-578.28639	1287.10566	-512.32503	-582.44316	1285.62383	-674.25175	
89	0.88000000	-477.17072	827.96251	-420.17087	-434.12067	736.39725	-419.45762	-478.74311	393.08438	-431.51270	-562.02936	378.89468	-489.49292	-398.59838	265.39233	-405.18336	-326.14588	289.21103	-453.27121	-510.71792	817.08519	-797.79580	-508.95361	729.01000	-821.46203	-507.39471	390.26653	-772.14997	-577.24225	368.94877	-696.11157	-428.18958	268.30112	-808.27140	-350.78096	287.52015	-766.47369	-449.03014	627.33435	-391.29278	-502.26069	752.30218	-389.69757	-529.95325	640.11934	-380.80869	-594.52322	728.92376	-793.49581	-579.41737	607.67220	-792.10908	-486.77177	1158.71936	-418.20928	-454.15028	1054.03631	-420.97824	-497.43830	1013.82680	-390.27974	-592.80578	1120.46202	-411.99447	-550.62738	1013.57121	-407.74620	-488.66908	1115.30395	-800.99982	-452.28165	979.62882	-796.27882	-594.24622	1086.15243	-813.68877	-563.15823	952.46064	-810.89779	-506.65093	1353.67920	-479.83064	-683.60598	1372.27150	-545.96694	-507.12162	1344.44344	-725.35883	-686.73418	1371.55350	-656.29759	-484.65178	1899.96729	-634.74823	-449.93562	1865.20087	-476.36136	-477.04630	1839.63256	-778.76319	-398.32392	1776.75135	-592.09672	-401.06612	1768.45318	-652.82084	-512.49618	1815.74068	-342.63432	-695.84779	1712.52614	-256.62820	-671.78161	1796.56445	-225.62686	-544.95249	1727.85012	-131.64667	-460.59186	1694.66786	-110.81921	-493.80624	1685.30659	-81.52355	-528.00337	1754.59262	-878.97029	-603.10460	1515.62597	-906.03457	-594.02433	1569.25838	-977.60895	-514.81805	1572.85165	-986.97976	-345.41855	1569.85486	-962.67894	-346.73098	1536.34459	-986.92306	-589.69617	1240.28098	-493.75170	-595.45963	1240.16678	-700.63200	-566.22787	1271.26491	-511.98755	-570.82401	1270.21002	-674.08174	
90	0.89000000	-465.67666	811.76112	-418.41953	-420.22479	721.25342	-416.93706	-452.80199	376.55730	-429.39900	-534.94476	360.63196	-488.48320	-369.98297	250.05741	-403.17990	-297.62817	275.88594	-450.32190	-497.59295	801.16095	-799.12958	-493.09323	713.73888	-823.69618	-477.81190	374.14150	-777.37545	-547.11080	351.88233	-701.47559	-395.16261	253.00450	-811.41562	-318.32832	275.15494	-769.97471	-432.02028	611.68976	-389.00407	-489.71025	734.84545	-388.56101	-513.37428	621.64835	-380.64446	-578.37223	710.22178	-794.91576	-558.74522	589.57224	-794.65977	-475.66048	1142.11711	-417.32159	-442.98618	1037.32795	-419.67246	-486.45433	997.21201	-389.31621	-581.82626	1103.90975	-412.13333	-539.62100	997.06770	-407.49803	-477.80088	1099.66481	-802.44104	-440.96553	964.05004	-797.96789	-583.41544	1070.03255	-813.54692	-551.86440	936.58835	-811.52401	-494.41543	1336.71158	-479.50657	-671.50026	1355.71830	-545.49808	-495.31110	1328.17628	-724.93600	-674.86727	1355.23957	-655.76515	-470.23407	1883.16544	-633.99177	-434.11397	1847.96427	-475.41061	-462.85829	1824.51297	-778.20164	-384.58964	1759.32794	-591.65985	-387.36853	1751.12239	-652.70834	-503.58417	1799.36429	-344.87502	-699.17145	1709.11636	-271.49440	-669.83857	1789.57696	-236.59316	-550.30970	1708.88430	-143.27217	-468.70373	1669.29616	-122.62171	-502.97526	1660.81389	-94.32249	-520.88510	1742.36721	-877.36882	-611.90104	1508.76323	-901.45460	-601.58468	1561.40252	-973.35213	-522.78282	1560.21079	-984.92380	-353.07073	1546.79816	-963.66553	-356.86185	1513.41221	-987.75159	-577.69525	1223.46429	-493.63894	-583.69018	1223.90163	-700.51212	-554.14023	1254.58526	-511.69085	-559.08739	1253.88240	-673.69561	
